<!--
<svg xmlns="http://www.w3.org/2000/svg" viewBox="0 0 63 63">
  <path fill="#fff" d="M0 63V0h18v9h9v9h9V9h9V0h18v63H45V27h-9v18h-9V27h-9v36z"></path>
</svg>
-->

<svg xmlns="http://www.w3.org/2000/svg" viewBox="0 0 80 80">
<defs><style>.cls-1{fill:#fff;fill-rule:evenodd;}</style></defs><title>mlogo</title><g id="Layer_2" data-name="Layer 2"><g id="图层_1" data-name="图层 1"><path class="cls-1" d="M30.94,61.12V36.92H37V49h6V36.92h6.05v24.2h12.1V18.77H49.09v6.05H43v6.05H37V24.82H30.94V18.77H18.84V61.12ZM65,80H15A15,15,0,0,1,0,65V15A15,15,0,0,1,15,0H65A15,15,0,0,1,80,15V65A15,15,0,0,1,65,80Z"/></g></g></svg>